# xmcd
#
# Track frame offsets:
#	150
#	20250
#	38475
#	61120
#	84215
#
# Disc length: 1482 seconds
#
# Revision: 1
# Processed by: cddbd v1.5.2PL0 Copyright (c) Steve Scherf et al.
# Submitted via: audiograbber 1.83.01
#
DISCID=2705c805
DTITLE=XL5 - T‰‰ On Mun Kotini - DÈj‡ Vu [CDM)
DYEAR=1997
DGENRE=House
TTITLE0=T‰‰ On Mun Kotini
TTITLE1=DÈj‡ Vu (Elo's Radio Mix)
TTITLE2=DÈj‡ Vu (Elo's Euro Extended Mix)
TTITLE3=DÈj‡ Vu (Elo's Euro Dub)
TTITLE4=DÈj‡ Vu (Elo's Club Mix)
EXTD=TR.
EXTT0=
EXTT1=
EXTT2=
EXTT3=
EXTT4=
PLAYORDER=
